<svg width="63" height="44" viewBox="0 0 63 44" fill="none" xmlns="http://www.w3.org/2000/svg">
<g id="Icon">
<path id="Vector" d="M55.8773 15.598L52.8981 25.8528C52.5067 27.1989 51.7497 28.3708 50.7349 29.2017C49.7201 30.0326 48.4993 30.48 47.2466 30.4801H24.104C23.0603 30.0912 22.1121 29.4302 21.3358 28.5505C20.5595 27.6708 19.977 26.5971 19.6351 25.4158L18.3602 21.0313C18.6972 21.1628 19.0511 21.2301 19.4076 21.2304H43.3337C44.0025 21.2309 44.6544 20.9925 45.1964 20.5491C45.7383 20.1057 46.1426 19.4801 46.3515 18.7614L47.2101 15.8044C47.4495 14.9843 47.9668 14.3051 48.6485 13.9159C49.3302 13.5267 50.1206 13.4594 50.8461 13.7287L55.8773 15.598Z" fill="#FCC013"/>
<path id="Vector_2" d="M24.104 30.4801H15.4947C14.2422 30.4799 13.0218 30.0324 12.0074 29.2015C10.993 28.3706 10.2363 27.1987 9.84537 25.8528L6.86615 15.5981L11.8952 13.7287C12.6213 13.4596 13.4121 13.5276 14.0939 13.9178C14.7757 14.3079 15.2927 14.9882 15.5312 15.8093L16.3898 18.7905L18.446 25.8577C18.8385 27.204 19.5968 28.3758 20.6128 29.2058C21.6288 30.0359 22.8506 30.4819 24.104 30.4801Z" fill="currentColor"/>
<path id="Vector_3" d="M17.1953 0.500017C15.824 0.496631 14.4944 0.984942 13.3969 1.88315C12.3007 2.78019 11.4928 4.03879 11.0784 5.47214C11.0782 5.47275 11.078 5.47336 11.0778 5.47396L9.11706 12.0763L8.8236 13.0644L9.78131 12.6832C10.3215 12.4681 10.8056 12.1193 11.1997 11.6682C11.5936 11.2174 11.8882 10.6754 12.0651 10.0849L12.0654 10.0836L13.2181 6.19924L13.2181 6.19925L13.2189 6.19639C13.5007 5.22544 14.044 4.39068 14.7604 3.80517C15.4757 3.22059 16.3275 2.91325 17.1934 2.91539H17.1947L45.553 2.91539L45.5538 2.91539C46.4195 2.91403 47.2707 3.22173 47.9856 3.80627C48.7017 4.39174 49.2447 5.2261 49.5267 6.19653L49.5277 6.19997L50.6868 10.0844L50.6871 10.0856C50.8649 10.6756 51.1601 11.2171 51.5543 11.6673C51.9488 12.1178 52.433 12.4661 52.9731 12.6808L53.9338 13.0628L17.1947 1.00002M17.1953 0.500017C17.1955 0.500018 17.1957 0.500019 17.196 0.500019L17.1947 1.00002M17.1953 0.500017H17.1947V1.00002M17.1953 0.500017H45.5417M17.1947 1.00002H45.5423M45.5417 0.500017C45.5415 0.500018 45.5413 0.500019 45.5411 0.500019L45.5423 1.00002M45.5417 0.500017H45.5423V1.00002M45.5417 0.500017C46.9127 0.496777 48.242 0.985207 49.3392 1.88346C50.4347 2.78033 51.2421 4.03851 51.6562 5.47127C51.6565 5.4722 51.6568 5.47314 51.657 5.47408L51.1766 5.61273L45.5423 1.00002M9.59637 12.2186L9.79045 11.5651C9.66831 11.6391 9.5416 11.7023 9.41144 11.7541L9.59637 12.2186ZM9.59637 12.2186L10.0757 12.361L10.2174 11.8836C10.0222 12.0195 9.81404 12.132 9.59637 12.2186ZM53.1578 12.2162L52.6789 12.3599L52.5351 11.8806C52.7309 12.0168 52.9395 12.1294 53.1578 12.2162ZM53.1578 12.2162L53.3425 11.7516C53.2116 11.6995 53.0842 11.636 52.9614 11.5616L53.1578 12.2162Z" fill="#AD8C5C" stroke="#AD8C5C"/>
<path id="Vector_4" d="M31.7709 6.93341H30.9725V14.7313H31.7709V6.93341Z" fill="#AD8C5C"/>
<path id="Vector_5" d="M30.1311 20.1549V19.3732C30.1311 18.8297 29.9402 18.3086 29.6005 17.9243C29.2608 17.54 28.8 17.3242 28.3195 17.3242H20.8887C20.4082 17.3242 19.9474 17.54 19.6077 17.9243C19.2679 18.3086 19.0771 18.8297 19.0771 19.3732V20.1015L20.4873 20.1525L30.1311 20.1549Z" fill="#FCC013"/>
<path id="Vector_6" d="M43.6664 20.1549V19.3732C43.6664 18.8297 43.4755 18.3086 43.1358 17.9243C42.796 17.54 42.3353 17.3242 41.8548 17.3242H34.4239C33.9435 17.3242 33.4827 17.54 33.143 17.9243C32.8032 18.3086 32.6124 18.8297 32.6124 19.3732V20.1015L34.0226 20.1525L43.6664 20.1549Z" fill="#FCC013"/>
<path id="Vector_7" d="M24.4162 9.33123L22.8848 11.0634L24.4162 12.7955L25.9476 11.0634L24.4162 9.33123Z" fill="currentColor"/>
<path id="Vector_8" d="M38.3302 9.33007L36.7988 11.0622L38.3302 12.7943L39.8616 11.0622L38.3302 9.33007Z" fill="currentColor"/>
<path id="Vector_9" d="M0.858464 16.8322C1.09233 17.0938 1.42205 17.254 1.78027 17.2537C2.06613 17.2556 2.35165 17.3585 2.59624 17.5594C2.84232 17.7616 3.03486 18.0538 3.13643 18.4011C3.13647 18.4013 3.1365 18.4014 3.13654 18.4015L5.72476 27.3101C5.72479 27.3102 5.72483 27.3103 5.72486 27.3105C6.38565 29.5934 7.67137 31.5915 9.40825 33.0121C11.1462 34.4335 13.246 35.2025 15.4073 35.1971C15.4075 35.1971 15.4078 35.1971 15.408 35.1971L15.4938 35.1971C15.2392 35.6229 15.0393 36.0873 14.9004 36.5765C14.9002 36.577 14.9001 36.5776 14.8999 36.5782L13.0742 42.8605L12.8879 43.5015L13.5555 43.5C14.0571 43.4989 14.5384 43.3186 14.9312 42.9965C15.3229 42.6753 15.6063 42.2305 15.7515 41.7317L15.7517 41.7312L17.0394 37.2936C17.0395 37.2935 17.0395 37.2934 17.0395 37.2933C17.2203 36.6718 17.567 36.1409 18.0198 35.7701C18.4715 35.4001 19.0062 35.2071 19.5474 35.2068H43.192H43.1926C43.7337 35.2062 44.2686 35.3987 44.7203 35.7687C45.1731 36.1396 45.5195 36.6709 45.6995 37.2929L45.6996 37.2933L46.9874 41.7312L46.9876 41.7317C47.1328 42.2305 47.4162 42.6753 47.8079 42.9965C48.2007 43.3186 48.682 43.4989 49.1837 43.5L49.8507 43.5015L49.665 42.8608L47.8427 36.5753L47.8425 36.5746C47.701 36.0893 47.4997 35.629 47.2446 35.2068L47.3247 35.2068C47.3249 35.2068 47.3252 35.2068 47.3254 35.2068C49.4866 35.2122 51.5865 34.4433 53.3244 33.0218C55.0614 31.6012 56.3472 29.6029 57.0079 27.3198L59.5641 18.5271L59.5643 18.5271L59.5672 18.5159C59.6652 18.1473 59.8607 17.8328 60.1158 17.6115C60.3677 17.3929 60.6648 17.2754 60.9648 17.2634C61.1375 17.2627 61.3068 17.2242 61.4628 17.152C61.6222 17.0781 61.7629 16.9714 61.8785 16.8413C61.9941 16.7113 62.083 16.56 62.1427 16.3975C62.2025 16.235 62.2327 16.0624 62.2327 15.8894V15.5374V15.0374H61.7327L60.4944 15.0374C60.4944 15.0374 60.4944 15.0374 60.4944 15.0374C60.4943 15.0374 60.4943 15.0374 60.4942 15.0374C59.8254 15.0371 59.1809 15.2762 58.6525 15.7087C58.1251 16.1405 57.7406 16.7416 57.5435 17.4202L54.8756 26.5945L54.8753 26.5954C54.3492 28.4173 53.3295 29.9936 51.9728 31.1046C50.6173 32.2147 48.9946 32.8044 47.3377 32.8012H47.3367L15.4067 32.8012L15.4057 32.8012C13.7488 32.8044 12.1261 32.2147 10.7706 31.1046C9.41394 29.9936 8.3942 28.4173 7.86809 26.5954L7.86783 26.5945L5.19996 17.4204C5.19994 17.4204 5.19993 17.4204 5.19992 17.4203C5.00325 16.742 4.61925 16.1409 4.09227 15.7091C3.56416 15.2765 2.91999 15.0372 2.25136 15.0374C2.25132 15.0374 2.25129 15.0374 2.25125 15.0374H1H0.5V15.5374V15.8797H0.499987L0.500013 15.8833C0.502545 16.2299 0.625803 16.5719 0.858464 16.8322Z" fill="#AD8C5C" stroke="#AD8C5C"/>
</g>
</svg>
