<?xml version="1.0" standalone="no"?>
<!DOCTYPE svg PUBLIC "-//W3C//DTD SVG 20010904//EN"
 "http://www.w3.org/TR/2001/REC-SVG-20010904/DTD/svg10.dtd">
<svg version="1.0" xmlns="http://www.w3.org/2000/svg"
 width="2000.000000pt" height="2000.000000pt" viewBox="0 0 2000.000000 2000.000000"
 preserveAspectRatio="xMidYMid meet">
<metadata>
Created by potrace 1.14, written by Peter Selinger 2001-2017
</metadata>
<g transform="translate(0.000000,2000.000000) scale(0.100000,-0.100000)"
fill="#000000" stroke="none">
<path d="M9847 19474 c-1 -1 -92 -5 -202 -8 -110 -4 -216 -9 -235 -10 -19 -2
-83 -6 -141 -10 -59 -4 -115 -8 -125 -10 -11 -2 -53 -7 -94 -10 -41 -4 -91 -9
-110 -11 -19 -3 -55 -7 -80 -10 -105 -12 -142 -17 -265 -36 -160 -24 -176 -27
-245 -40 -30 -6 -66 -12 -80 -14 -71 -10 -298 -58 -455 -95 -49 -12 -98 -23
-108 -25 -10 -2 -27 -7 -37 -10 -10 -3 -28 -8 -39 -10 -22 -5 -31 -8 -93 -25
-21 -5 -55 -15 -75 -20 -21 -6 -45 -12 -53 -15 -164 -43 -529 -164 -775 -255
-80 -29 -425 -170 -444 -181 -9 -5 -63 -29 -121 -55 -186 -82 -448 -213 -715
-359 -122 -66 -458 -270 -601 -365 -205 -137 -590 -412 -614 -440 -3 -3 -33
-27 -67 -53 -34 -26 -68 -53 -75 -60 -7 -6 -36 -30 -63 -51 -28 -22 -68 -56
-91 -75 -22 -20 -69 -61 -104 -91 -270 -231 -705 -663 -916 -909 -16 -19 -36
-41 -45 -50 -8 -9 -49 -56 -90 -106 -41 -49 -76 -92 -79 -95 -16 -14 -238
-299 -318 -408 -178 -242 -504 -740 -545 -832 -4 -8 -16 -28 -27 -45 -10 -16
-25 -41 -33 -55 -236 -423 -453 -875 -586 -1225 -13 -33 -29 -73 -36 -90 -79
-183 -264 -768 -335 -1060 -18 -71 -34 -137 -36 -145 -10 -38 -83 -378 -87
-405 -3 -16 -12 -68 -21 -115 -17 -94 -23 -126 -31 -185 -3 -22 -10 -62 -15
-90 -5 -27 -12 -72 -15 -100 -3 -27 -7 -66 -10 -85 -14 -115 -25 -203 -30
-265 -4 -38 -8 -77 -10 -85 -2 -8 -6 -62 -10 -120 -3 -58 -8 -123 -10 -145
-23 -266 -23 -1024 0 -1250 2 -22 7 -87 10 -144 4 -57 9 -113 11 -125 2 -11 6
-52 9 -91 3 -38 10 -99 15 -135 5 -36 12 -92 15 -125 4 -33 8 -71 11 -85 2
-14 6 -43 9 -65 3 -22 8 -52 11 -67 3 -15 7 -39 9 -55 3 -28 31 -187 40 -233
3 -14 9 -50 15 -80 56 -305 169 -749 276 -1083 49 -153 129 -383 149 -432 7
-16 32 -79 55 -140 143 -371 379 -875 550 -1171 28 -48 50 -88 50 -90 0 -2 19
-34 42 -71 22 -38 49 -81 58 -98 43 -75 65 -110 70 -115 4 -3 9 -12 13 -20 27
-68 470 -703 588 -845 9 -11 56 -69 105 -130 48 -60 90 -112 93 -115 4 -3 42
-48 86 -100 44 -52 82 -97 85 -100 3 -3 53 -57 110 -120 126 -140 490 -504
619 -620 52 -47 99 -90 105 -95 12 -11 137 -118 176 -151 22 -20 199 -164 242
-199 197 -160 573 -424 853 -601 449 -284 1024 -577 1510 -769 66 -26 134 -53
150 -60 158 -67 741 -256 925 -301 8 -2 96 -24 195 -49 99 -25 196 -48 215
-51 19 -3 38 -8 41 -10 3 -2 21 -6 40 -9 19 -3 88 -17 154 -30 66 -13 136 -26
155 -29 19 -3 46 -8 60 -11 14 -3 43 -7 65 -10 22 -3 47 -7 55 -10 8 -2 40 -7
70 -10 30 -4 57 -8 60 -10 3 -1 32 -6 65 -10 33 -4 69 -8 80 -10 11 -1 45 -5
75 -9 30 -4 71 -9 90 -11 19 -3 67 -7 105 -10 39 -3 81 -8 95 -10 22 -3 116
-11 265 -21 337 -22 936 -22 1220 0 22 2 92 7 155 11 63 4 117 8 120 10 3 2
48 6 100 10 52 4 97 8 100 10 3 1 36 6 73 10 37 3 76 8 86 10 10 2 42 6 72 9
30 3 63 8 74 10 19 3 111 18 200 32 83 12 105 16 295 55 107 21 236 48 285 60
50 11 97 22 105 24 57 12 325 85 477 131 372 111 770 256 1093 399 58 26 125
56 150 67 95 42 461 226 585 294 695 380 1327 832 1916 1370 99 91 515 510
599 603 41 46 80 89 85 95 83 88 344 408 478 586 47 63 90 120 95 125 23 28
202 289 294 430 107 163 262 420 336 555 22 41 59 109 82 150 43 79 260 516
260 524 0 3 16 38 35 79 130 282 303 742 404 1077 18 58 41 132 51 165 35 114
120 451 156 620 19 94 37 179 40 190 5 22 63 354 69 395 2 14 7 45 10 70 3 25
8 56 10 70 2 14 6 50 10 80 3 30 8 66 10 80 4 26 11 82 21 185 3 33 7 74 9 90
2 17 6 75 10 130 4 55 9 118 10 140 24 288 24 947 0 1235 -3 30 -7 91 -10 135
-3 44 -7 98 -9 120 -7 75 -17 170 -21 200 -2 17 -7 59 -11 95 -3 36 -8 72 -9
80 -7 39 -16 98 -19 130 -4 30 -14 95 -32 205 -117 727 -362 1553 -661 2235
-113 257 -284 607 -387 788 -24 43 -54 97 -68 122 -95 171 -282 471 -409 656
-120 175 -142 207 -149 214 -3 3 -26 34 -52 70 -80 114 -255 336 -398 505 -74
87 -102 120 -145 169 -108 122 -236 258 -395 417 -218 218 -364 356 -515 484
-77 65 -139 119 -145 125 -3 3 -75 61 -160 128 -85 67 -161 127 -167 132 -160
133 -759 532 -1003 668 -25 14 -61 34 -80 45 -202 117 -559 297 -830 420 -65
30 -350 148 -400 166 -19 7 -44 17 -55 22 -103 46 -591 209 -795 266 -157 43
-495 130 -535 136 -16 3 -59 12 -95 20 -36 9 -78 18 -95 21 -16 2 -66 12 -110
21 -44 9 -161 29 -260 45 -172 28 -207 33 -307 45 -24 3 -59 7 -78 10 -57 8
-111 13 -185 20 -38 4 -81 8 -95 10 -14 2 -72 7 -130 10 -58 4 -118 9 -135 11
-81 9 -779 25 -788 18z"/>
</g>
</svg>
