<svg width="36" height="23" viewBox="0 0 36 23" fill="none" xmlns="http://www.w3.org/2000/svg">
<path d="M9.26098 15.5028L8.84062 14.5441L9.81751 14.168C10.1581 14.0369 10.4677 13.9277 10.7568 13.8258C11.3033 13.633 11.7767 13.4661 12.2479 13.2255L12.2496 13.2246C14.8836 11.8858 16.2438 9.13899 15.7342 6.48661L15.734 6.48567C15.2321 3.85935 12.919 1.66924 9.93134 1.13638L9.93117 1.13635C5.438 0.334167 1.80916 3.18377 1.15574 6.63637C0.788803 8.59805 1.10245 10.5869 1.75356 12.6067C3.25153 17.2263 6.64548 20.1881 11.7625 21.784L11.7627 21.784C12.0531 21.8747 12.2688 21.9332 12.449 21.9502C12.688 21.9689 12.8393 21.9287 12.9345 21.8809C13.0261 21.835 13.1207 21.755 13.2081 21.599L14.0673 22.0805L13.2081 21.599C13.2923 21.4487 13.2928 21.362 13.286 21.3128C13.2778 21.2542 13.2426 21.1412 13.0971 20.9734C12.9395 20.7931 12.7727 20.6063 12.602 20.4152C12.2337 20.0029 11.8475 19.5704 11.4972 19.1391L11.4954 19.137C10.576 17.9984 9.81884 16.7751 9.26098 15.5028Z" stroke="#AD8C5C" stroke-width="2"/>
<path d="M27.7617 14.6227L28.3949 15.6524C28.5355 15.8811 28.6816 16.1284 28.8338 16.3862C29.2194 17.0391 29.6449 17.7597 30.1237 18.417C30.6202 19.1087 31.1981 19.7711 31.7387 20.3909C31.9177 20.596 32.0925 20.7964 32.259 20.9917C32.4868 21.2601 32.4653 21.4571 32.3309 21.6456C32.1384 21.9065 31.7923 22.0319 31.4768 21.9458L31.4732 21.9448C28.325 21.0985 25.67 19.6381 23.6165 17.3838L27.7617 14.6227ZM27.7617 14.6227L28.8918 14.1937M27.7617 14.6227L28.8918 14.1937M28.8918 14.1937C29.2449 14.0596 29.5596 13.949 29.8492 13.8473C30.4088 13.6507 30.8744 13.4871 31.3415 13.251L31.3416 13.2509M28.8918 14.1937L31.3416 13.2509M31.3416 13.2509C33.9929 11.9112 35.3896 9.1464 34.904 6.61361L31.3416 13.2509ZM34.9039 6.61309C34.3707 3.8424 32.1098 1.68631 29.0322 1.13676C24.6299 0.361241 21.0888 3.10475 20.3286 6.48045C20.0335 7.80965 20.1636 9.186 20.4181 10.6749C20.8492 13.1774 21.8435 15.4358 23.6163 17.3836L34.9039 6.61309Z" stroke="#AD8C5C" stroke-width="2"/>
</svg>
