<svg width="112" height="64" viewBox="0 0 112 64" fill="none" xmlns="http://www.w3.org/2000/svg">
<path d="M111.797 19.3026H77.5497L94.6773 0H17.1202L34.2404 19.3026H0L18.9635 40.6845L38.7748 63.0174L55.8951 43.7148L72.9931 63.0174L91.6617 42.0264L111.797 19.3026ZM51.427 4.0478L38.7748 18.3146L26.1153 4.0478H51.427ZM102.802 23.3504L90.1502 37.6025L77.4907 23.3504H102.802ZM38.7748 24.4048L51.368 38.6126H26.1743L38.7748 24.4048ZM43.2503 23.3504H68.5693L55.8951 37.6025L43.2503 23.3504ZM72.9931 24.4048L85.5863 38.6126H60.459L72.9931 24.4048ZM43.3019 19.3026L55.8951 5.10952L68.4956 19.3026H43.3019ZM72.9931 18.3146L60.3631 4.0478H85.6748L72.9931 18.3146ZM34.2994 23.3504L21.6473 37.6025L8.99512 23.3504H34.2994ZM51.427 42.6531L38.7748 56.9199L26.1153 42.6531H51.427ZM85.6822 42.6531L72.9931 56.9199L60.3631 42.6531H85.6822Z" fill="currentColor"/>
</svg>
