<svg width="66" height="66" viewBox="0 0 66 66" fill="none" xmlns="http://www.w3.org/2000/svg">
<path d="M65.3101 2.27921V1.90436e-05H63.0351C53.3234 -0.00755215 43.7429 2.24254 35.0499 6.57266C34.2425 6.99317 33.4477 7.41369 32.6656 7.8342C31.875 7.41369 31.0718 6.99317 30.2644 6.57266C21.5712 2.24341 11.9908 -0.00663076 2.27921 1.90436e-05H2.45885e-05V2.27921C-0.00858048 11.9951 2.24152 21.58 6.57266 30.2771C6.99318 31.0802 7.41369 31.8708 7.83421 32.6572C7.39687 33.4477 6.97636 34.2495 6.57266 35.0625C2.24445 43.7517 -0.00559142 53.3277 2.45885e-05 63.0351V65.3101H2.27921C11.9953 65.3209 21.5807 63.0706 30.2771 58.7375C31.0802 58.3169 31.8708 57.8964 32.6572 57.4759C33.4477 57.8964 34.2509 58.338 35.0625 58.7375C43.7547 63.0696 53.3358 65.3198 63.0477 65.3101H65.3227V63.0351C65.3324 53.3231 63.0822 43.7421 58.7501 35.0499C58.3296 34.2425 57.909 33.4477 57.4885 32.6656C57.909 31.875 58.3296 31.0718 58.7501 30.2644C63.077 21.5708 65.3228 11.9901 65.3101 2.27921ZM55.8401 39.583C58.7753 46.2571 60.4273 53.4242 60.7097 60.7097C53.4242 60.4273 46.2571 58.7753 39.583 55.8401C36.4204 54.448 33.3878 52.7776 30.521 50.8486C24.1776 46.5868 18.7233 41.1325 14.4615 34.7892C13.6205 36.261 12.8131 37.779 12.0856 39.3307C15.965 44.6469 20.6464 49.3283 25.9626 53.2077C26.6606 53.7207 27.3713 54.2127 28.0946 54.6963C27.3335 55.0874 26.5345 55.5079 25.7271 55.8401C19.0533 58.7761 11.886 60.4281 4.60045 60.7097C5.01906 49.9261 8.43374 39.4723 14.4615 30.5209C18.7245 24.1786 24.1786 18.7245 30.521 14.4615C29.0492 13.6205 27.5311 12.8131 25.9794 12.0856C20.6642 15.9661 15.983 20.6474 12.1024 25.9626C11.595 26.6606 11.1002 27.3713 10.618 28.0946C10.2227 27.3082 9.84426 26.5177 9.48683 25.7103C6.54943 19.0421 4.89185 11.8811 4.60045 4.60045C11.8857 4.88444 19.0526 6.53635 25.7271 9.47C28.8889 10.8638 31.9213 12.5341 34.7892 14.4615C41.1334 18.7221 46.588 24.1767 50.8486 30.5209C51.6896 29.0491 52.5012 27.5311 53.2245 25.9794C49.3451 20.6633 44.6637 15.9818 39.3475 12.1024C38.6495 11.5936 37.9346 11.0932 37.2113 10.6138C37.9977 10.2227 38.7925 9.84426 39.5999 9.48682C46.2746 6.55364 53.4413 4.90175 60.7265 4.61727C60.4449 11.9029 58.7929 19.0701 55.8569 25.7439C54.4648 28.9065 52.7944 31.9391 50.8654 34.806C46.606 41.1512 41.1512 46.606 34.806 50.8654C36.2778 51.7065 37.7958 52.5181 39.3475 53.2413C44.6647 49.3631 49.3463 44.6815 53.2245 39.3644C53.7375 38.6663 54.2337 37.9514 54.7173 37.2281C55.1084 37.9809 55.5079 38.7756 55.8401 39.583Z" fill="currentColor"/>
</svg>
