<svg width="68" height="68" viewBox="0 0 68 68" fill="none" xmlns="http://www.w3.org/2000/svg">
<path d="M0.391991 28.6866V28.7579C0.391991 28.8173 0.391991 28.8767 0.391991 28.9301V28.9658V29.0727V29.1618V29.2034V29.2568C0.391991 29.3637 0.391991 29.4766 0.344477 29.5894L0.308842 29.8982V30.0111C0.308842 30.1299 0.308842 30.2546 0.267267 30.3793C0.225692 30.5041 0.267267 30.5634 0.267267 30.6525V30.7416C0.267267 30.7773 0.267267 30.8129 0.267267 30.8545C0.267267 30.896 0.267267 30.9317 0.267267 30.9673C0.270194 30.987 0.270194 31.007 0.267267 31.0267C0.270205 31.0563 0.270205 31.0862 0.267267 31.1158V31.2762C0.267267 31.4009 0.267267 31.5315 0.267267 31.686C0.267267 31.7513 0.267267 31.8166 0.267267 31.882C0.267267 31.9473 0.267267 32.0126 0.267267 32.0839C0.263895 32.0996 0.263895 32.1157 0.267267 32.1314C0.267267 32.2086 0.267267 32.2858 0.267267 32.3571V32.6659C0.267267 32.8025 0.267267 32.9332 0.267267 33.0639V33.1767C0.267267 33.2836 0.267267 33.3905 0.267267 33.5034V33.5925H0V34.2398C0.101353 40.6415 2.71614 46.7465 7.27986 51.2368C11.8436 55.7272 17.9901 58.2428 24.3926 58.2404C25.4111 58.2398 26.4287 58.1763 27.4394 58.0504C27.8967 57.991 28.3481 57.9256 28.7995 57.8425C25.4413 55.8176 22.5474 53.1078 20.3063 49.8898C19.4859 48.7215 18.7591 47.4902 18.1326 46.2075C17.99 45.9224 17.8534 45.6135 17.7228 45.3403C17.7228 45.3403 17.6931 45.2809 17.6812 45.2453C16.1436 41.7749 15.3262 38.0286 15.2784 34.2331C15.2306 30.4377 15.9534 26.672 17.4032 23.1639C18.8529 19.6559 20.9994 16.4786 23.7127 13.8242C26.426 11.1697 29.6496 9.09348 33.1886 7.72104C34.3923 7.23806 35.6288 6.84111 36.8888 6.53319C43.9305 4.8817 51.3378 6.00918 57.5693 9.681L57.4505 9.56221L57.2842 9.40779L57.2367 9.36028C57.1951 9.31276 57.1416 9.27119 57.0941 9.22367C57.0466 9.17616 56.9932 9.12271 56.9338 9.07519L56.7556 8.90889L56.6784 8.83762L56.6368 8.80199L56.3755 8.57036L56.0904 8.32091L55.9954 8.2437C55.9341 8.18362 55.8686 8.12804 55.7994 8.0774L55.6687 7.96455L55.5974 7.90516L55.544 7.86358L55.3183 7.67947L55.1461 7.54286L54.5521 7.10336L54.3977 6.98457L54.3324 6.93706H54.2967H54.267L54.1601 6.85391L54.1186 6.82421L53.976 6.71731H53.9285L53.8454 6.65791L53.786 6.61634L53.4534 6.23623L53.4177 6.20653L52.996 5.90957L52.806 5.7789H52.7585L52.4734 5.58885L52.4081 5.54727L52.0933 5.34534L51.7785 5.14934L51.4578 4.95334L51.2855 4.84644L51.1549 4.75141L51.0777 4.69202L51.0183 4.65638L50.7866 4.52572L50.7272 4.49008L50.65 4.44257L50.4362 4.31784C49.9175 4.04068 49.4107 3.78925 48.9158 3.56356H48.8801L48.5535 3.4032L48.2624 3.26659H48.2268C47.8883 3.10623 47.5735 2.96369 47.2647 2.83303H47.235L47.0152 2.738L46.8786 2.68455L46.742 2.62515H46.6767C46.35 2.49449 46.0827 2.38758 45.8333 2.29849L45.6907 2.2391L45.5363 2.17971C45.1265 2.03123 44.6929 1.88275 44.2594 1.74614L44.0159 1.66893L43.7605 1.59172L43.6061 1.54421L43.0715 1.38979H43.0003H42.8934H42.8577C42.5014 1.29476 42.1391 1.21161 41.7768 1.12252L41.1294 0.979978C40.5711 0.671137 40.2088 0.593926 39.8406 0.528594L39.4367 0.457323L39.0091 0.391991L38.819 0.362295L38.6052 0.326659C38.2192 0.273206 37.8272 0.225692 37.4174 0.184117C36.6512 0.106907 35.891 0.0534534 35.1248 0C34.6972 0 34.2755 0 33.8538 0C33.1411 0 32.4224 0 31.7038 0.0712712L31.4781 0.0831497C30.6882 0.136603 29.8982 0.219753 29.1024 0.326659L28.6807 0.391991L0.391991 28.6748V28.6866Z" fill="currentColor"/>
<path d="M67.3156 38.9734V38.9199V38.7774V38.7239C67.3156 38.6645 67.3156 38.5992 67.3156 38.5398V38.4567C67.3156 38.4567 67.3156 38.4151 67.3156 38.3973V38.1835V38.0409C67.3156 37.8984 67.3512 37.7677 67.3631 37.6371L67.3987 37.2748C67.3987 37.1738 67.3987 37.0788 67.3987 36.9837V36.8946V36.6927V36.6452C67.3987 36.5561 67.3987 36.473 67.3987 36.3898V36.3542C67.3987 36.2294 67.3987 36.0988 67.3987 35.9503C67.3987 35.8196 67.3987 35.689 67.3987 35.5642V35.4217C67.3987 35.3148 67.3987 35.202 67.3987 35.095C67.3987 34.9881 67.3987 34.804 67.3987 34.6674V34.5843C67.3987 34.4833 67.3987 34.3823 67.3987 34.2814V33.5746V33.4855C67.3048 27.1319 64.7346 21.0658 60.2353 16.5787C55.736 12.0916 49.663 9.53788 43.3091 9.46119C41.8314 9.45987 40.3565 9.59106 38.9022 9.85318C45.2116 13.7053 49.7449 19.8927 51.5163 27.0698C53.2876 34.2468 52.1536 41.833 48.361 48.1783C44.5683 54.5237 38.4238 59.115 31.2637 60.9536C24.1036 62.7923 16.5071 61.7297 10.1264 57.9968C10.1447 58.0181 10.1646 58.038 10.1858 58.0562L10.2571 58.1216C10.3096 58.178 10.3651 58.2315 10.4234 58.2819C10.5125 58.371 10.6194 58.4779 10.7263 58.573L10.9401 58.7689L11.3143 59.1075L11.5637 59.3213L11.6172 59.3688L11.8548 59.5767L11.9023 59.6183L12.0983 59.7786H12.128L12.318 59.933L12.4665 60.0518C12.6506 60.2003 12.8347 60.3488 13.0248 60.4913L13.1495 60.5864L13.2861 60.6873L13.3633 60.7467L13.4108 60.7824L13.6365 60.9487L13.7078 61.0021L13.8207 61.0853L13.987 61.21L14.0523 61.2516L14.474 61.5485L14.664 61.6732H14.7115L14.866 61.7802L15.0323 61.893L15.2936 62.0593L15.5549 62.2256H15.7687L16.1548 62.5938L16.333 62.7007L16.6834 62.9027L16.9625 63.0571C17.4614 63.3422 17.9663 63.6094 18.477 63.8589L18.8096 64.0252H18.8572L19.1719 64.1737C19.4927 64.3222 19.8193 64.4706 20.14 64.6072L20.3776 64.7082H20.4548L20.7755 64.8389C21.0369 64.9458 21.316 65.0586 21.613 65.1655L21.8862 65.2724C22.3197 65.4328 22.7474 65.5753 23.1572 65.706H23.1869L23.4363 65.7892L23.8105 65.902L23.9174 65.9376L24.3688 66.0624L24.6004 66.1277C25.5329 66.3831 26.4832 66.591 27.4216 66.7573L27.8136 66.8285L28.1996 66.8879H28.2412L28.6332 66.9473C31.7753 67.3907 34.9642 67.3907 38.1063 66.9473C38.231 66.9473 38.3557 66.9473 38.4805 66.8939L67.3097 39.0209C67.3087 39.0048 67.3107 38.9887 67.3156 38.9734Z" fill="currentColor"/>
</svg>
