<svg width="68" height="68" viewBox="0 0 68 68" fill="none" xmlns="http://www.w3.org/2000/svg">
<path d="M19.2985 23.2417L42.6131 0L33.3465 2.52736C23.7056 5.15492 15.5785 9.71418 9.19963 16.0771L2.01086 23.2417C3.1458 24.3733 4.49333 25.271 5.97647 25.8835C7.45961 26.4959 9.04929 26.8112 10.6547 26.8112C12.2601 26.8112 13.8498 26.4959 15.3329 25.8835C16.8161 25.271 18.1636 24.3733 19.2985 23.2417ZM11.5233 18.3707C16.8743 13.0376 23.566 9.05173 31.4362 6.49653L16.9749 20.9259C15.7096 22.1946 14.0903 23.0542 12.3279 23.3927C10.5655 23.7313 8.74165 23.5332 7.09383 22.8242L11.5233 18.3707Z" fill="currentColor"/>
<path d="M16.1314 58.5801L23.3146 65.7447C24.4501 64.6136 25.3508 63.2706 25.9653 61.7924C26.5798 60.3143 26.8961 58.73 26.8961 57.13C26.8961 55.53 26.5798 53.9456 25.9653 52.4675C25.3508 50.9893 24.4501 49.6463 23.3146 48.5152L0 25.2736L2.5359 34.5146C5.17234 44.123 9.747 52.2172 16.1314 58.5801ZM20.9966 50.831C22.2695 52.0921 23.1321 53.7059 23.4718 55.4624C23.8115 57.2188 23.6127 59.0366 22.9013 60.6788L18.4327 56.2643C13.0984 50.9313 9.09906 44.2621 6.53524 36.4184L20.9966 50.831Z" fill="currentColor"/>
<path d="M57.3537 41C55.7472 40.9984 54.1563 41.3133 52.6724 41.9267C51.1885 42.54 49.8409 43.4397 48.7071 44.5739L25.3925 67.81L34.6591 65.2827C44.3 62.6551 52.4271 58.0959 58.806 51.7385L65.9947 44.5739C64.8609 43.4413 63.514 42.5427 62.0313 41.9294C60.5486 41.3162 58.959 41.0003 57.3537 41ZM56.4823 49.4227C51.1313 54.7557 44.4452 58.7416 36.5694 61.2968L51.0307 46.8842C52.2985 45.6192 53.919 44.7638 55.6813 44.4292C57.4436 44.0946 59.2661 44.2963 60.9118 45.0081L56.4823 49.4227Z" fill="currentColor"/>
<path d="M44.6854 19.2948L68 42.5364L65.4641 33.301C62.8333 23.687 58.2586 15.5872 51.8798 9.22987L44.6854 2.06531C43.55 3.19643 42.6492 4.53942 42.0347 6.01756C41.4202 7.4957 41.1039 9.08003 41.1039 10.68C41.1039 12.28 41.4202 13.8644 42.0347 15.3425C42.6492 16.8207 43.55 18.1636 44.6854 19.2948ZM45.1267 7.13672L49.5505 11.5457C55.0517 17.1236 59.1381 23.9292 61.4704 31.3971L47.0146 16.9845C45.7454 15.721 44.8871 14.106 44.5514 12.3496C44.2156 10.5933 44.4181 8.77686 45.1323 7.13672H45.1267Z" fill="currentColor"/>
</svg>
