<svg width="173" height="188" viewBox="0 0 173 188" fill="none" xmlns="http://www.w3.org/2000/svg">
<path d="M6.65482 131.484C9.15534 126.309 11.7105 121.152 14.2658 115.996C15.8323 112.836 17.6606 109.801 18.7947 106.42C19.0957 105.49 18.9826 104.345 19.7706 103.653L19.7647 103.672C20.1016 102.693 20.335 101.66 20.8243 100.771C22.6676 97.3782 24.2229 93.6303 26.3113 90.5386C26.3891 90.4227 26.3141 90.1567 26.4155 89.9679C26.9106 89.0603 28.8048 85.946 29.8413 83.8637C32.2538 79.0232 34.8005 74.2664 38.5529 70.1416C39.1414 69.506 45.8015 59.6331 49.6084 61.6911C53.5857 63.8444 49.4848 74.5253 48.6469 75.7451C46.6239 78.6968 44.0286 81.3627 43.0591 84.8568C41.6491 89.9612 38.6739 94.2368 36.4539 98.9179C34.4722 103.112 32.0704 107.11 30.1192 111.334C28.2748 115.29 27.1004 119.605 25.0307 123.448C23.2351 126.755 20.4772 129.55 18.3529 132.691C17.8502 133.435 18.0679 134.754 17.5416 135.571C17.1173 136.26 16.4606 137.417 15.7439 137.951C15.4489 138.178 15.0932 138.405 15.0782 138.763C15.0084 140.473 8.15404 151.009 3.56088 148.454C-0.922858 145.936 4.47565 135.977 6.65482 131.484Z" fill="#FCC013"/>
<path d="M51.7504 111.422C54.6515 107.001 57.6015 102.617 60.5515 98.2325C62.3707 95.5371 64.4156 93.0155 65.8201 90.045C66.2069 89.2232 66.1973 88.1322 67.0293 87.6156L67.0234 87.6339C67.4403 86.7816 67.7595 85.8573 68.3104 85.0887C70.4069 82.2211 72.2577 78.992 74.5693 76.456C74.6594 76.3643 74.6085 76.0859 74.7163 75.9394C75.2855 75.1767 77.3964 72.5757 78.5932 70.8072C81.3758 66.6909 84.2685 62.6707 88.2955 59.4407C88.9215 58.9381 96.2821 50.8231 99.7901 53.3686C103.445 56.0219 98.5009 65.3219 97.5702 66.3303C95.3364 68.7505 92.5721 70.8177 91.3082 73.9143C89.475 78.4587 86.2081 81.9549 83.6304 85.936C81.322 89.5207 78.6477 92.8662 76.3517 96.475C74.2053 99.8704 72.6688 103.685 70.3089 106.93C68.2602 109.713 65.3452 111.872 62.9977 114.457C62.4393 115.062 62.5352 116.322 61.9473 117.018C61.4613 117.586 60.7241 118.557 59.9941 118.945C59.6802 119.105 59.3118 119.248 59.2603 119.594C59.0317 121.172 51.4398 129.877 47.1991 126.732C43.0743 123.664 49.2381 115.263 51.7504 111.422Z" fill="#FCC013"/>
<path d="M94.0328 97.1375C98.3936 91.8798 102.968 86.7718 107.769 81.8982C110.682 78.8719 113.914 76.1702 116.637 72.9213C117.387 72.0357 117.831 70.7891 118.954 70.3064L118.93 70.3188C119.752 69.3962 120.471 68.3594 121.422 67.5993C124.96 64.6342 128.489 61.3236 132.232 58.9084C132.383 58.8161 132.441 58.5125 132.652 58.3591C133.646 57.6533 137.206 55.1184 139.483 53.498C144.638 49.5851 150.075 46.0457 156.244 43.791C156.728 43.6049 160.156 41.9743 163.711 40.8883C167.327 39.8623 171.027 39.3873 172.038 41.3061C173.104 43.3032 170.954 46.2137 168.381 48.6853C165.845 51.2294 162.857 53.3653 162.109 53.7477C160.28 54.667 158.378 55.4415 156.531 56.3549C154.714 57.2983 152.99 58.3925 151.53 59.8541C147.318 64.1527 142.186 67.1258 137.697 70.9722L131.577 76.0634C129.525 77.7363 127.528 79.4876 125.64 81.3349C122.058 84.8096 119.136 88.921 115.583 92.3651C112.542 95.3501 108.743 97.6265 105.562 100.546C104.817 101.231 104.562 102.64 103.781 103.435C103.126 104.089 102.099 105.208 101.23 105.652C100.85 105.831 100.427 106.017 100.304 106.4C99.9779 107.281 97.3492 110.299 94.2787 112.69C91.2751 115.123 87.8179 116.966 85.7426 115.348C83.722 113.747 84.8074 110.331 86.8487 106.7C87.9119 104.908 89.2052 103.09 90.4756 101.406C91.8129 99.7636 93.0972 98.2854 94.0328 97.1375Z" fill="#FCC013"/>
</svg>
