<svg width="89" height="73" viewBox="0 0 89 73" fill="none" xmlns="http://www.w3.org/2000/svg">
<path d="M49.0723 27.887L46.0388 30.9245L51.2243 36.11L28.9636 58.3707L6.70287 36.11L28.9636 13.8493L33.7042 18.594L23.9664 28.3318L30.2259 34.5912L33.2634 31.5577L30.0375 28.3318L36.7418 21.6275L39.9677 24.8534L43.0012 21.8159L39.7793 18.594L52.2982 6.0711L55.5241 9.297L58.5577 6.25944L52.2982 0L36.7418 15.5564L28.9636 7.77822L0.631775 36.11L28.9636 64.4418L57.2954 36.11L49.0723 27.887Z" fill="currentColor"/>
<path d="M88.4082 36.11L60.0765 7.7782L31.7447 36.11L39.9677 44.333L43.0012 41.2955L37.8158 36.11L60.0765 13.8493L82.3372 36.11L60.0765 58.3707L55.3358 53.626L65.0736 43.8882L58.8142 37.6288L55.7766 40.6623L59.0025 43.8882L52.2982 50.5925L49.0723 47.3666L46.0388 50.4041L49.2647 53.626L36.7418 66.1489L33.5159 62.923L30.4824 65.9606L36.7418 72.22L52.2982 56.6636L60.0765 64.4418L88.4082 36.11Z" fill="currentColor"/>
</svg>
