<svg width="98" height="68" viewBox="0 0 98 68" fill="none" xmlns="http://www.w3.org/2000/svg">
<path d="M27.9711 67.3547L27.9648 67.3486L25.4096 62.9484L5.11673 28.0675H0L22.8481 67.3486L22.8419 67.3547H22.8543H27.9586H27.9711Z" fill="currentColor"/>
<path d="M48.438 67.3547L48.4318 67.3486L45.8765 62.9484L43.315 58.5543L40.7598 54.1541L38.1983 49.7539L35.643 45.3536L25.5837 28.0675H20.4669L33.0816 49.7539L35.643 54.1541L38.1983 58.5543L40.7598 62.9484L43.315 67.3486L43.3088 67.3547H43.3212H48.4255H48.438Z" fill="currentColor"/>
<path d="M56.11 62.9484L53.5485 58.5543L50.9932 54.1541L48.4318 49.7539L45.8765 45.3536L43.315 40.9534L40.7598 36.5594L35.8171 28.0675H30.7004L38.1983 40.9534L43.315 49.7539L45.8765 54.1541L48.4318 58.5543L50.9932 62.9484L53.5485 67.3486L53.5423 67.3547H53.5547H58.6652H58.6715L58.6652 67.3486L56.11 62.9484Z" fill="currentColor"/>
<path d="M67.1392 0H62.0225L43.3461 32.1161L45.9014 36.5101L67.1392 0Z" fill="currentColor"/>
<path d="M33.0878 67.3547H38.1921H38.2045L38.1983 67.3486L35.643 62.9484L33.0816 58.5543L30.5263 54.1541L15.3502 28.0675H10.2335L27.9648 58.5481L30.5263 62.9484L33.0816 67.3486L33.0754 67.3547H33.0878Z" fill="currentColor"/>
<path d="M51.0181 45.3105L77.3727 0H72.256L48.4567 40.9103L48.4877 40.9535L51.0181 45.3105Z" fill="currentColor"/>
<path d="M56.1348 54.1048L87.6062 0H82.4894L53.5734 49.7046L53.6045 49.754L56.1348 54.1048Z" fill="currentColor"/>
<path d="M97.8396 0H92.7229L58.6963 58.505L58.7212 58.5544L61.2516 62.9053L97.8396 0Z" fill="currentColor"/>
</svg>
