<svg width="77" height="68" viewBox="0 0 77 68" fill="none" xmlns="http://www.w3.org/2000/svg">
<path d="M32.3397 5.81515H32.6043C33.1262 5.81515 33.6554 5.86655 34.1993 5.9106C36.5606 6.08348 38.905 6.43943 41.2111 6.97525V1.2996C38.8213 0.703409 36.3842 0.315259 33.9273 0.139505C32.9939 0.0734237 32.009 0 30.9873 0H30.1348C25.2056 0.0204172 20.2978 0.649284 15.5231 1.8723C10.0789 3.22147 4.85282 5.33247 0 8.14268L0 64.3852C4.6694 61.8642 9.63778 59.94 14.7881 58.6582C18.8521 57.6263 23.0075 56.9942 27.1948 56.7712H27.3565C28.0915 56.7712 28.7603 56.7124 29.4806 56.7051V50.9413C24.0402 51.0149 18.6275 51.7296 13.3548 53.0706C11.4071 53.5626 9.51817 54.1206 7.74684 54.7227L5.74765 55.4055V11.5495L6.61495 11.1384C9.91554 9.57915 13.3622 8.34946 16.9049 7.46719C20.3925 6.57374 23.9597 6.02531 27.5549 5.82984H27.7313C28.5325 5.82984 29.341 5.7711 30.1348 5.7711H31.0388C31.4577 5.77844 31.884 5.78578 32.3397 5.81515Z" fill="currentColor"/>
<path d="M46.5177 11.7478C45.1874 11.7478 43.8791 11.7037 42.6149 11.6083C41.0788 11.4981 39.55 11.3146 38.08 11.0723C37.176 10.9181 36.294 10.7419 35.4414 10.5363V66.14C39.0651 67.0311 42.7859 67.4676 46.5177 67.4396C51.4444 67.4182 56.3496 66.7894 61.1221 65.5673C66.566 64.2173 71.7919 62.1063 76.6451 59.2969V4.0603C71.9778 6.58015 67.012 8.50423 61.8644 9.78735C56.8496 11.0717 51.6947 11.7302 46.5177 11.7478ZM68.8836 12.7096L70.8828 12.0341V55.8901L70.0155 56.3012C66.7132 57.8564 63.2669 59.0859 59.7256 59.9724C55.41 61.0813 50.9738 61.6535 46.5177 61.6758C45.1874 61.6758 43.8644 61.6171 42.5855 61.507L41.2037 61.3895V16.2853L42.8134 16.3881C43.982 16.4616 45.1947 16.4983 46.4883 16.4983C52.1387 16.4787 57.7649 15.761 63.2388 14.3616C65.1572 13.8844 67.0461 13.3337 68.8836 12.7096Z" fill="currentColor"/>
</svg>
